Coordinates
version=1
nRows=18
nColumns=34
inDegrees=yes
inDegrees=no

Units are S.I. units (second, meters, Newtons, ...)
If the header above contains a line with 'inDegrees', this indicates whether rotational values are in degrees (yes) or radians (no).

endheader
time	pelvis_tilt	pelvis_list	pelvis_rotation	pelvis_tx	pelvis_ty	pelvis_tz	hip_flexion_r	hip_adduction_r	hip_rotation_r	knee_angle_r	ankle_angle_r	subtalar_angle_r	mtp_angle_r	hip_flexion_l	hip_adduction_l	hip_rotation_l	knee_angle_l	ankle_angle_l	subtalar_angle_l	mtp_angle_l	lumbar_extension	lumbar_bending	lumbar_rotation	arm_flex_r	arm_add_r	arm_rot_r	elbow_flex_r	pro_sup_r	arm_flex_l	arm_add_l	arm_rot_l	elbow_flex_l	pro_sup_l
3.950000 0.069149 0.103417 -0.037172 -0.001611 0.008005 -0.004707 1.516323 0.033602 -0.125698 0.745441 -0.209702 -0.013176 0.000000 1.499980 -0.253456 -0.519470 1.091495 0.058985 -0.084517 0.000000 -0.963918 0.277349 -0.084278 0.529557 -0.187941 0.151495 0.901671 1.660047 1.868971 0.099342 0.459959 0.905580 1.274049
3.966667 0.097181 0.103846 -0.056242 -0.001777 0.008117 -0.004667 1.463886 0.050141 -0.122783 0.699176 -0.230227 0.000253 0.000000 1.453457 -0.258795 -0.525319 1.068262 0.034003 -0.092988 0.000000 -0.973904 0.266314 -0.105597 0.480148 -0.179516 0.148472 0.913774 1.664071 1.832848 0.079783 0.473843 0.904114 1.270638
3.983333 0.139272 0.102632 -0.067731 -0.002052 0.008149 -0.004598 1.403078 0.058592 -0.121352 0.652274 -0.252858 0.002726 0.000000 1.397410 -0.255988 -0.530287 1.034120 0.022821 -0.083454 0.000000 -0.993352 0.259002 -0.127223 0.442145 -0.169701 0.132723 0.928889 1.669956 1.795574 0.058242 0.508190 0.910743 1.262803
4.000000 0.172980 0.098895 -0.084723 -0.002070 0.008148 -0.004648 1.357990 0.070086 -0.118638 0.624851 -0.273001 -0.001796 0.000000 1.358808 -0.260756 -0.527756 1.017681 0.019355 -0.083521 0.000000 -0.996899 0.249313 -0.153565 0.394691 -0.162069 0.131102 0.931698 1.673025 1.743617 0.045250 0.532698 0.911637 1.258406
4.016667 0.194212 0.095447 -0.099443 -0.001978 0.008287 -0.004653 1.326196 0.080904 -0.122776 0.615887 -0.271664 0.004270 0.000000 1.326914 -0.267110 -0.529514 1.012440 0.047282 -0.054997 0.000000 -0.983398 0.245812 -0.171688 0.340523 -0.163746 0.124122 0.922490 1.674714 1.667116 0.034559 0.555428 0.910959 1.255105
4.033333 0.218012 0.091146 -0.105170 -0.001994 0.008387 -0.004671 1.284003 0.080903 -0.125473 0.595710 -0.260938 0.033792 0.000000 1.292563 -0.266794 -0.534032 1.010984 0.083938 -0.019619 0.000000 -0.972745 0.251196 -0.200299 0.296758 -0.166434 0.116646 0.902155 1.675418 1.592189 0.025152 0.566313 0.901469 1.251319
4.050000 0.240652 0.091159 -0.104902 -0.002025 0.008463 -0.004681 1.248815 0.076799 -0.129970 0.578351 -0.257941 0.054906 0.000000 1.260522 -0.261477 -0.538976 1.009651 0.088637 -0.019625 0.000000 -0.962337 0.254901 -0.230857 0.250651 -0.168164 0.099302 0.865272 1.676477 1.500779 0.018174 0.562472 0.923372 1.243467
4.066667 0.265308 0.090455 -0.109348 -0.002081 0.008557 -0.004690 1.206076 0.080239 -0.128653 0.555568 -0.261522 0.081931 0.000000 1.220773 -0.257476 -0.549673 0.997028 0.090581 -0.011639 0.000000 -0.951467 0.256984 -0.261167 0.211711 -0.176889 0.099476 0.825332 1.678845 1.409583 0.011904 0.556008 0.936359 1.237825
4.083333 0.288259 0.093103 -0.112369 -0.002176 0.008563 -0.004704 1.178495 0.079675 -0.119729 0.545963 -0.252901 0.089618 0.000000 1.193188 -0.251468 -0.555958 0.983827 0.096905 -0.010690 0.000000 -0.944063 0.254097 -0.286382 0.172167 -0.191696 0.102627 0.797335 1.678984 1.336188 0.012482 0.562269 0.933445 1.237602
4.100000 0.317939 0.094962 -0.103586 -0.002250 0.008637 -0.004704 1.137603 0.073625 -0.108591 0.524252 -0.249930 0.101539 0.000000 1.158557 -0.238385 -0.560444 0.974727 0.087692 -0.031272 0.000000 -0.938925 0.256232 -0.327780 0.151481 -0.203874 0.119849 0.747754 1.676426 1.249630 -0.000517 0.561358 0.948440 1.241866
4.116667 0.338275 0.093872 -0.097099 -0.002245 0.008675 -0.004726 1.106816 0.071656 -0.103982 0.505326 -0.246592 0.104030 0.000000 1.138021 -0.230490 -0.556546 0.970476 0.086639 -0.042541 0.000000 -0.932350 0.255307 -0.346904 0.114478 -0.227801 0.118796 0.734468 1.676116 1.178061 0.005791 0.578429 0.941237 1.243327
4.133333 0.355379 0.103036 -0.099253 -0.002234 0.008635 -0.004736 1.093711 0.072148 -0.088659 0.505564 -0.237424 0.115393 0.000000 1.124132 -0.227185 -0.565499 0.971826 0.082103 -0.055977 0.000000 -0.907360 0.241148 -0.401507 0.111004 -0.248204 0.171851 0.673640 1.669872 1.080695 -0.026972 0.556070 0.974893 1.258978
4.150000 0.373180 0.108590 -0.095820 -0.002298 0.008609 -0.004743 1.076409 0.066660 -0.061587 0.501894 -0.230660 0.111956 0.000000 1.113836 -0.219045 -0.570030 0.972683 0.078980 -0.039865 0.000000 -0.892397 0.230362 -0.417979 0.070183 -0.284176 0.179528 0.651519 1.667904 1.012692 -0.023056 0.569519 0.972288 1.264153
4.166667 0.386386 0.110721 -0.089963 -0.002324 0.008592 -0.004736 1.062499 0.066086 -0.035251 0.503371 -0.214705 0.101804 0.000000 1.100533 -0.210428 -0.570368 0.973427 0.052435 -0.073042 0.000000 -0.868233 0.224232 -0.455595 0.063484 -0.316129 0.251295 0.589027 1.648234 0.931555 -0.052069 0.559052 0.992567 1.298912
4.183333 0.394139 0.111177 -0.080717 -0.002339 0.008519 -0.004799 1.058087 0.061400 -0.016983 0.503256 -0.198959 0.077809 0.000000 1.100368 -0.199043 -0.564783 0.989016 0.048385 -0.084611 0.000000 -0.843739 0.219991 -0.475290 0.047345 -0.369536 0.352873 0.565419 1.593808 0.864824 -0.056903 0.541749 1.011268 1.357989
4.200000 0.404104 0.113313 -0.077151 -0.002279 0.008458 -0.004889 1.054340 0.058040 0.000960 0.509017 -0.186163 0.073890 0.000000 1.099187 -0.190516 -0.563357 1.003197 0.059615 -0.086930 0.000000 -0.819656 0.212563 -0.475564 0.006336 -0.411590 0.353743 0.535834 1.588278 0.814643 -0.054585 0.553245 1.015850 1.362428
4.216667 0.410368 0.116346 -0.070917 -0.002438 0.008425 -0.004897 1.051015 0.053810 0.018071 0.511220 -0.186589 0.052940 0.000000 1.101180 -0.176221 -0.561112 1.000373 0.046969 -0.099439 0.000000 -0.803073 0.206422 -0.469770 -0.018181 -0.452062 0.367187 0.517314 1.575797 0.775794 -0.054763 0.556831 1.030432 1.372465
4.233333 0.420351 0.118699 -0.063481 -0.002488 0.008437 -0.004939 1.046998 0.050087 0.024221 0.517475 -0.186934 0.033201 0.000000 1.090515 -0.157241 -0.557923 0.990665 0.044359 -0.126947 0.000000 -0.794291 0.201562 -0.478667 0.001896 -0.510295 0.541193 0.491696 1.452374 0.735021 -0.072639 0.523710 1.069841 1.459876
